<?xml version="1.0" standalone="no"?>
<!DOCTYPE svg PUBLIC "-//W3C//DTD SVG 20010904//EN"
 "http://www.w3.org/TR/2001/REC-SVG-20010904/DTD/svg10.dtd">
<svg version="1.0" xmlns="http://www.w3.org/2000/svg"
 width="240.000000pt" height="240.000000pt" viewBox="0 0 240.000000 240.000000"
 preserveAspectRatio="xMidYMid meet">

<g transform="translate(0.000000,240.000000) scale(0.100000,-0.100000)"
fill="#000000" stroke="none">
<path d="M1035 2300 c-295 -46 -588 -230 -749 -469 -67 -100 -133 -244 -163
-358 -24 -89 -27 -115 -26 -273 0 -157 3 -185 26 -275 32 -121 115 -294 188
-390 152 -201 369 -346 616 -412 89 -24 115 -27 273 -26 157 0 185 3 275 26
121 32 294 115 390 188 201 152 346 369 412 616 24 89 27 115 26 273 0 157 -3
185 -26 275 -103 391 -413 700 -804 801 -110 29 -328 41 -438 24z m225 -770
l0 -300 295 0 295 0 0 -45 0 -45 -294 0 -294 0 -7 -295 -7 -295 -46 0 -45 0 5
294 6 294 -299 7 -299 7 0 45 0 46 298 -4 297 -4 3 298 2 297 45 0 45 0 0
-300z"/>
</g>
</svg>
