<svg width="23" height="25" viewBox="0 0 23 25" fill="none" xmlns="http://www.w3.org/2000/svg">
<path d="M2.3418 6.48127C2.71133 6.36395 3.11959 6.49853 3.35256 6.82851C3.61142 7.19515 3.58079 7.69956 3.2796 8.03013L2.45461 8.65964C2.06371 8.99419 1.8363 9.48959 1.83332 10.0131V19.6132C1.84447 21.177 3.07535 22.4403 4.59348 22.446H9.27863V22.467C9.78489 22.467 10.1953 22.8898 10.1953 23.4113C10.1953 23.9328 9.78489 24.3556 9.27863 24.3556H4.59348C2.0589 24.3498 0.00560132 22.2347 0 19.6237V10.0131C0.0162051 8.90254 0.522248 7.85997 1.37499 7.18028L2.22035 6.52978L2.3418 6.48127ZM8.3416 1.37824C9.88817 0.0976344 12.0913 0.0976344 13.6379 1.37824L20.6758 7.15929C21.5097 7.85024 21.9993 8.88971 22.01 9.99212L21.9998 19.6132C21.9998 22.2266 19.9433 24.3451 17.4063 24.3451H15.3693C14.1414 24.3451 13.1444 23.3227 13.1388 22.0578V17.7142L13.1293 17.6048C13.0792 17.3209 12.8381 17.1056 12.548 17.1056H9.49252C9.33406 17.1056 9.18224 17.1712 9.07116 17.2876C8.96008 17.404 8.89905 17.5615 8.90178 17.7247V19.3824C8.90178 19.9039 8.49138 20.3267 7.98512 20.3267C7.47887 20.3267 7.06846 19.9039 7.06846 19.3824V17.7247C7.06846 17.0596 7.32493 16.4218 7.78144 15.9516C8.23794 15.4813 8.8571 15.2171 9.5027 15.2171H12.5582C13.8986 15.2229 14.9823 16.3439 14.9823 17.7247V22.0578C14.9823 22.278 15.1556 22.4565 15.3693 22.4565H17.4573C18.976 22.4565 20.2072 21.1882 20.2072 19.6237V10.0131C20.1998 9.48069 19.9605 8.97992 19.5554 8.64915L12.5175 2.86809C11.63 2.11544 10.3494 2.11544 9.46196 2.86809L7.20087 4.60976C6.7818 4.91976 6.19812 4.82112 5.89718 4.38942C5.59623 3.95773 5.69199 3.35646 6.11106 3.04646L8.3416 1.37824Z" fill="white"/>
</svg>
