<svg width="24" height="25" viewBox="0 0 24 25" fill="none" xmlns="http://www.w3.org/2000/svg">
<path d="M16.5287 0.312561C21.0605 0.312561 23.9019 3.21823 23.9019 7.90789V10.7281L23.8937 10.8542C23.8339 11.3078 23.4564 11.6575 22.9997 11.6575H22.9893L22.8469 11.6457C22.6596 11.6146 22.4855 11.5224 22.3513 11.3809C22.1834 11.204 22.0919 10.9648 22.0975 10.7174V7.90789C22.0975 4.21171 20.1168 2.17133 16.5287 2.17133H7.69328C4.09482 2.17133 2.12448 4.21171 2.12448 7.90789V17.0202C2.12448 20.7163 4.10519 22.746 7.69328 22.746H16.5287C20.1271 22.746 22.0975 20.7057 22.0975 17.0202C22.0975 16.5069 22.5014 16.0908 22.9997 16.0908C23.498 16.0908 23.9019 16.5069 23.9019 17.0202C23.9019 21.6991 21.0812 24.6048 16.5391 24.6048H7.69328C3.14076 24.6048 0.320068 21.6991 0.320068 17.0202V7.90789C0.320068 3.21823 3.14076 0.312561 7.69328 0.312561H16.5287ZM7.10218 9.48892C7.34151 9.49727 7.56779 9.6033 7.73119 9.78363C7.89458 9.96397 7.98167 10.2038 7.97328 10.4504V18.2166C7.95609 18.7299 7.53823 19.1316 7.03996 19.1139C6.54168 19.0962 6.15168 18.6658 6.16886 18.1525V10.3756L6.18494 10.2302C6.22111 10.0397 6.31526 9.86455 6.45558 9.73125C6.63097 9.56463 6.86385 9.47735 7.10218 9.48892ZM12.1525 5.84615C12.6507 5.84615 13.0547 6.26225 13.0547 6.77554V18.1632C13.0547 18.6765 12.6507 19.0926 12.1525 19.0926C11.6542 19.0926 11.2503 18.6765 11.2503 18.1632V6.77554C11.2503 6.26225 11.6542 5.84615 12.1525 5.84615ZM17.1509 13.591C17.6492 13.591 18.0531 14.0071 18.0531 14.5204V18.1525C18.0531 18.6658 17.6492 19.0819 17.1509 19.0819C16.6526 19.0819 16.2487 18.6658 16.2487 18.1525V14.5204C16.2487 14.0071 16.6526 13.591 17.1509 13.591Z" fill="white"/>
</svg>
