<svg width="20" height="25" viewBox="0 0 20 25" fill="none" xmlns="http://www.w3.org/2000/svg">
<path d="M19.4385 20.1473C19.4385 24.142 14.0553 24.6048 10.0057 24.6048C9.59757 24.6048 9.19535 24.5987 8.80024 24.5866C8.33038 24.5744 7.96019 24.1724 7.97443 23.6902C7.98748 23.2092 8.39327 22.8473 8.84889 22.8437C9.22857 22.8546 9.61418 22.8594 10.0057 22.8594C15.1338 22.8594 17.7346 21.9473 17.7346 20.1473C17.7346 18.3303 15.1338 17.4084 10.0057 17.4084C4.87765 17.4084 2.27682 18.3218 2.27682 20.123C2.27682 20.7121 2.4809 21.5659 4.25236 22.1805C4.69848 22.3347 4.93697 22.8291 4.78629 23.2846C4.63441 23.74 4.15269 23.989 3.70538 23.8311C1.11642 22.9335 0.572998 21.3194 0.572998 20.123C0.572998 16.2086 5.7387 15.6846 9.75619 15.6649L10.4548 15.6651C13.134 15.6792 19.4385 15.9229 19.4385 20.1473ZM10.0057 0.312561C13.5083 0.312561 16.3571 3.22999 16.3571 6.81543C16.3571 10.3997 13.5083 13.3171 10.0057 13.3171C6.50316 13.3171 3.65317 10.3997 3.65317 6.81543C3.65317 3.22999 6.50316 0.312561 10.0057 0.312561ZM10.0057 2.05791C7.44288 2.05791 5.35818 4.19194 5.35818 6.81543C5.35818 9.43771 7.44288 11.5717 10.0057 11.5717C12.5686 11.5717 14.6533 9.43771 14.6533 6.81543C14.6533 4.19194 12.5686 2.05791 10.0057 2.05791Z" fill="white"/>
</svg>
