<svg width="26" height="31" viewBox="0 0 26 31" fill="none" xmlns="http://www.w3.org/2000/svg">
<path opacity="0.41" d="M1.49837 7.98187C1.7697 7.92071 2.0513 7.98498 2.28081 8.16046C2.7342 8.51082 2.86565 9.20402 2.5795 9.73552L2.50443 9.90727C2.22074 10.6634 2.47414 11.5578 3.11715 11.9759C3.63742 12.3382 4.06567 12.8483 4.35971 13.4559C5.27534 15.3674 4.7071 17.7592 3.06936 18.8872C2.37689 19.3374 2.13627 20.3401 2.53171 21.1276L3.35611 22.7434C3.54368 23.1284 3.86135 23.4098 4.2357 23.5226C4.61004 23.6354 5.00866 23.5697 5.33943 23.3408C5.87276 22.9893 6.4792 22.8064 7.09574 22.8113C9.07531 22.8113 10.6801 24.635 10.6801 26.8847C10.6866 27.7943 11.3373 28.5277 12.1377 28.5276L12.1257 28.5548C12.4971 28.5548 12.8402 28.78 13.0259 29.1455C13.2116 29.5109 13.2116 29.9613 13.0259 30.3267C12.8402 30.6922 12.4971 30.9174 12.1257 30.9174C10.1462 30.9174 8.54142 29.0937 8.54142 26.844C8.54464 26.5576 8.47851 26.2758 8.35026 26.0293C7.94938 25.2406 7.06342 24.9676 6.36693 25.4183L6.1546 25.5396C4.51153 26.4029 2.53902 25.7355 1.58784 23.9518L0.775397 22.336C-0.14023 20.4246 0.428014 18.0327 2.06575 16.9048C2.28282 16.7596 2.46375 16.554 2.59145 16.3073C2.83107 15.9278 2.91718 15.4502 2.82825 14.9942C2.73932 14.5381 2.48377 14.1466 2.12549 13.9176L1.92637 13.7701C0.442975 12.5911 -0.0423401 10.3182 0.835136 8.48633L0.936895 8.33923C1.08512 8.15678 1.2813 8.0308 1.49837 7.98187ZM22.9221 11.9062C23.393 11.7141 23.929 11.9224 24.1929 12.424C24.485 12.9829 24.3248 13.705 23.8345 14.0398C23.6174 14.1849 23.4365 14.3905 23.3088 14.6372C23.1141 15.015 23.0601 15.4654 23.1588 15.8886C23.2575 16.3117 23.5007 16.6726 23.8345 16.8912C25.5252 18.0429 26.0803 20.5299 25.0771 22.4582L24.2646 24.074L24.1349 24.3003C23.0974 25.9861 21.0974 26.5377 19.4855 25.5405C19.0386 25.2338 18.4803 25.2275 18.0281 25.524C17.5758 25.8205 17.3012 26.3729 17.311 26.9662C17.2538 27.5734 16.803 28.0338 16.2656 28.0338C15.7283 28.0338 15.2774 27.5734 15.2202 26.9662C15.2459 25.5425 15.9238 24.2375 17.0082 23.5242C18.0925 22.8109 19.426 22.7928 20.525 23.4766C20.8552 23.7023 21.2519 23.766 21.6242 23.6531C21.9958 23.5346 22.3127 23.2573 22.5083 22.8791L23.3208 21.2634C23.5149 20.8877 23.5686 20.4393 23.4698 20.0183C23.371 19.5974 23.128 19.2389 22.7951 19.023C22.2352 18.6352 21.7836 18.0749 21.4928 17.4072C20.5771 15.4957 21.1454 13.1039 22.7831 11.9759L22.9221 11.9062ZM12.9501 10.3601C14.1405 10.3565 15.2832 10.8914 16.126 11.8467C16.9688 12.8019 17.4425 14.0991 17.4425 15.4519L17.4351 15.7602C17.3367 17.702 16.2719 19.4236 14.6776 20.1783C12.9993 20.9728 11.0651 20.5394 9.77781 19.0803C8.49053 17.6213 8.10399 15.4243 8.79861 13.5149C9.49324 11.6055 11.1321 10.3601 12.9501 10.3601ZM12.9501 12.7499C11.6304 12.7499 10.5606 13.9657 10.5606 15.4655C10.5606 16.9653 11.6304 18.1811 12.9501 18.1811C14.2698 18.1811 15.3397 16.9653 15.3397 15.4655L15.3318 15.2428C15.2321 13.8471 14.2039 12.7499 12.9501 12.7499ZM13.7745 0C15.7541 0 17.3588 1.82374 17.3588 4.07344C17.3556 4.35978 17.4218 4.64162 17.55 4.88813C17.7403 5.26975 18.057 5.54905 18.4295 5.66382C18.802 5.77859 19.1995 5.71929 19.5333 5.49914C21.2153 4.45857 23.3199 5.10436 24.3124 6.96558C24.5867 7.53357 24.4181 8.24635 23.9301 8.58138C23.4342 8.9031 22.803 8.71624 22.5083 8.16046L22.4144 8.0005C21.9779 7.34228 21.1688 7.14245 20.525 7.56302C19.4278 8.24578 18.0968 8.22911 17.0131 7.51903C15.9295 6.80895 15.2499 5.5082 15.2202 4.08702C15.2331 3.64195 15.0866 3.20996 14.814 2.89C14.5415 2.57004 14.1664 2.38951 13.7745 2.38975H12.1377C11.7448 2.38962 11.3685 2.56972 11.0941 2.88925C10.8197 3.20878 10.6704 3.64066 10.6801 4.08702C10.669 5.51594 9.98891 6.82994 8.89537 7.5353C7.80183 8.24065 6.46046 8.23052 5.37527 7.50871L5.32748 7.45439L5.21253 7.36047C4.81737 6.98907 4.7147 6.3337 4.99294 5.82502C5.29648 5.27009 5.93838 5.09988 6.42667 5.44483C6.64463 5.58937 6.89126 5.66878 7.14353 5.67566C7.53021 5.69404 7.90744 5.53691 8.19207 5.2389C8.4767 4.9409 8.64537 4.52648 8.6609 4.08702C8.65354 1.87892 10.1956 0.0662275 12.1377 0H13.7745Z" fill="white"/>
</svg>
